<?xml version="1.0" encoding="iso-8859-1"?>
<!-- Generator: Adobe Illustrator 17.1.0, SVG Export Plug-In . SVG Version: 6.00 Build 0)  -->
<!DOCTYPE svg PUBLIC "-//W3C//DTD SVG 1.1//EN" "http://www.w3.org/Graphics/SVG/1.1/DTD/svg11.dtd">
<svg version="1.1" id="Capa_1" xmlns="http://www.w3.org/2000/svg" xmlns:xlink="http://www.w3.org/1999/xlink" x="0px" y="0px"
	 viewBox="0 0 216.368 216.368" style="enable-background:new 0 0 216.368 216.368;" xml:space="preserve">
<path d="M128.22,50.155l17.734-21.742c2.422-2.969,2.217-7.286-0.477-10.012L129.498,2.229C128.089,0.803,126.168,0,124.163,0
	H92.204c-2.005,0-3.926,0.803-5.335,2.229L70.89,18.401c-2.693,2.726-2.898,7.043-0.477,10.012l17.734,21.742
	c-36.849,9.018-64.282,42.305-64.282,81.894c0,46.494,37.825,84.319,84.318,84.319c46.494,0,84.319-37.826,84.319-84.319
	C192.503,92.46,165.07,59.173,128.22,50.155z M158.932,133.088c0,27.982-22.766,50.748-50.748,50.748s-50.747-22.766-50.747-50.748
	c0-27.982,22.765-50.748,50.747-50.748C136.166,82.34,158.932,105.106,158.932,133.088z"/>
<g>
</g>
<g>
</g>
<g>
</g>
<g>
</g>
<g>
</g>
<g>
</g>
<g>
</g>
<g>
</g>
<g>
</g>
<g>
</g>
<g>
</g>
<g>
</g>
<g>
</g>
<g>
</g>
<g>
</g>
</svg>
