<?xml version="1.0" encoding="iso-8859-1"?>
<!-- Generator: Adobe Illustrator 17.1.0, SVG Export Plug-In . SVG Version: 6.00 Build 0)  -->
<!DOCTYPE svg PUBLIC "-//W3C//DTD SVG 1.1//EN" "http://www.w3.org/Graphics/SVG/1.1/DTD/svg11.dtd">
<svg version="1.1" id="Capa_1" xmlns="http://www.w3.org/2000/svg" xmlns:xlink="http://www.w3.org/1999/xlink" x="0px" y="0px"
	 viewBox="0 0 217.928 217.928" style="enable-background:new 0 0 217.928 217.928;" xml:space="preserve">
<path d="M159.11,0H58.818C47.14,0,37.639,9.501,37.639,21.179v167.498c0,9.452,6.226,17.473,14.791,20.189v1.562
	c0,4.143,3.358,7.5,7.5,7.5h16.568c4.142,0,7.5-3.357,7.5-7.5v-0.572h49.931v0.572c0,4.143,3.357,7.5,7.5,7.5h16.569
	c4.143,0,7.5-3.357,7.5-7.5v-1.562c8.564-2.716,14.79-10.738,14.79-20.189V21.179C180.289,9.501,170.788,0,159.11,0z
	 M108.964,79.841c-13.372,0-24.25-10.879-24.25-24.25s10.879-24.25,24.25-24.25c13.371,0,24.25,10.879,24.25,24.25
	S122.335,79.841,108.964,79.841z M108.964,102.515c21.643,0,39.25,17.607,39.25,39.25s-17.607,39.25-39.25,39.25
	s-39.25-17.607-39.25-39.25S87.322,102.515,108.964,102.515z M127.714,141.765c0,10.339-8.411,18.75-18.75,18.75
	s-18.75-8.411-18.75-18.75s8.412-18.75,18.75-18.75S127.714,131.426,127.714,141.765z M121.994,55.591
	c0,7.185-5.845,13.03-13.029,13.03s-13.03-5.846-13.03-13.03s5.845-13.029,13.03-13.029S121.994,48.406,121.994,55.591z"/>
<g>
</g>
<g>
</g>
<g>
</g>
<g>
</g>
<g>
</g>
<g>
</g>
<g>
</g>
<g>
</g>
<g>
</g>
<g>
</g>
<g>
</g>
<g>
</g>
<g>
</g>
<g>
</g>
<g>
</g>
</svg>
